# xmcd
#
# Track frame offsets:
#	150
#	15026
#	25535
#	41614
#	71366
#	94472
#	113755
#	128722
#	138958
#	157978
#	174708
#	192598
#	211378
#	225256
#	244633
#
# Disc length: 3515 seconds
#
# Revision: 0
# Processed by: cddbd v1.5.2PL0 Copyright (c) Steve Scherf et al.
# Submitted via: audiograbber 1.83.01
#
DISCID=b70db90f
DTITLE=Blues Mail - Letter Box
DYEAR=1900
DGENRE=Blues
TTITLE0=Too Damned Much Lovin'
TTITLE1=She Loves My Automobil
TTITLE2=Coming Home
TTITLE3=But Not My Soul
TTITLE4=If The Blues Was Gin
TTITLE5=Statesboro' Blues
TTITLE6=Another Restless Night
TTITLE7=The House Is Rockin'
TTITLE8=It Hurts Me Too
TTITLE9=I Was Out Last Night
TTITLE10=All Your Love
TTITLE11=Stop Breaking own
TTITLE12=Three Times Married
TTITLE13=Santa's Messin' With The Kid
TTITLE14=Let The Good Times Roll
EXTD=
EXTT0=
EXTT1=
EXTT2=
EXTT3=
EXTT4=
EXTT5=
EXTT6=
EXTT7=
EXTT8=
EXTT9=
EXTT10=
EXTT11=
EXTT12=
EXTT13=
EXTT14=
PLAYORDER=
